<svg width="117" height="26" viewBox="0 0 117 26" fill="none" xmlns="http://www.w3.org/2000/svg">
<path d="M12.1622 25.3556C5.01556 25.3556 0.748892 20.52 0.748892 13.0889C0.748892 5.65778 5.01556 0.822223 12.1622 0.822223C19.2022 0.822223 23.0067 4.52 23.0067 10.4222V10.7422H17.3178V10.5644C17.3178 7.15111 15.8956 5.97778 12.1267 5.97778C8.10889 5.97778 6.43778 7.43556 6.43778 13.0889C6.43778 18.7422 8.10889 20.2 12.1267 20.2C15.8956 20.2 17.3178 19.0267 17.3178 15.6133V15.4356H23.0067V15.7556C23.0067 21.6578 19.2022 25.3556 12.1622 25.3556ZM35.6353 25.3556C28.5242 25.3556 24.1864 20.52 24.1864 13.0889C24.1864 5.65778 28.5242 0.822223 35.6353 0.822223C42.7464 0.822223 47.0486 5.65778 47.0486 13.0889C47.0486 20.52 42.7464 25.3556 35.6353 25.3556ZM35.6353 20.2C39.7242 20.2 41.3597 18.6711 41.3597 13.0889C41.3597 7.50667 39.7242 5.97778 35.6353 5.97778C31.5464 5.97778 29.8753 7.50667 29.8753 13.0889C29.8753 18.6711 31.5464 20.2 35.6353 20.2ZM53.8378 25H48.5044V1.17778H53.8378V10.6356H64.22V1.17778H69.5533V25H64.22V15.4H53.8378V25ZM82.545 25.3556C75.4339 25.3556 71.0961 20.52 71.0961 13.0889C71.0961 5.65778 75.4339 0.822223 82.545 0.822223C89.6561 0.822223 93.9583 5.65778 93.9583 13.0889C93.9583 20.52 89.6561 25.3556 82.545 25.3556ZM82.545 20.2C86.6339 20.2 88.2694 18.6711 88.2694 13.0889C88.2694 7.50667 86.6339 5.97778 82.545 5.97778C78.4561 5.97778 76.785 7.50667 76.785 13.0889C76.785 18.6711 78.4561 20.2 82.545 20.2ZM100.747 25H95.4142V1.17778H106.365C112.054 1.17778 115.219 3.80889 115.219 8.43111C115.219 12.3067 113.299 14.6178 109.21 14.9733V15.3289C111.272 15.9689 112.267 17.2133 113.192 19.0267L116.214 25H109.992L107.183 19.4889C106.116 17.4267 105.405 16.5378 102.881 16.5378H100.747V25ZM100.747 5.97778V12.1289H106.614C109.103 12.1289 109.921 11.3822 109.921 9.03556C109.921 6.76 109.103 5.97778 106.614 5.97778H100.747Z" fill="white"/>
</svg>
